<svg viewBox="0 0 115 32" fill="none" xmlns="http://www.w3.org/2000/svg">
<g clip-path="url(#clip0_237_132)">
<path d="M49.2629 16.3901C49.2629 17.0483 49.1261 17.629 48.8487 18.1356C48.5714 18.6422 48.2052 19.0379 47.743 19.3227C47.2807 19.6075 46.7482 19.748 46.1417 19.748C45.4649 19.748 44.9398 19.5631 44.5663 19.1896C44.1928 18.8161 44.0079 18.2576 44.0079 17.5106V9.07886H40.0065V18.2835C40.0065 19.1563 40.184 19.944 40.539 20.6429C40.894 21.3456 41.4155 21.9077 42.0996 22.3219C42.7838 22.7398 43.6085 22.9506 44.5663 22.9506C45.7756 22.9506 46.8074 22.6473 47.6616 22.0445C48.3606 21.549 48.919 20.9203 49.3406 20.1733V22.688H53.2606V9.07886H49.2592V16.3901H49.2629Z" fill="white"/>
<path d="M67.4947 9.68177C66.5961 9.10486 65.5347 8.81641 64.3069 8.81641C63.0792 8.81641 61.9512 9.10486 61.0785 9.68177C60.4461 10.0997 59.9949 10.6322 59.7176 11.272V9.08267H55.7975V28.1577H59.7989V20.436C60.0319 21.0831 60.4202 21.6194 60.9712 22.0483C61.7552 22.6548 62.7944 22.9544 64.0925 22.9544C65.3905 22.9544 66.4482 22.6622 67.3727 22.0742C68.2972 21.4862 69.0184 20.6615 69.5324 19.5928C70.0465 18.524 70.3053 17.2704 70.3053 15.8318C70.3053 14.3932 70.0613 13.1728 69.5731 12.1225C69.0849 11.0723 68.3897 10.2587 67.491 9.68177H67.4947ZM65.2685 18.7385C64.6805 19.4153 63.9149 19.7518 62.9756 19.7518C62.0363 19.7518 61.2375 19.419 60.6421 18.7496C60.0467 18.0839 59.7471 17.1261 59.7471 15.8836C59.7471 14.641 60.043 13.6832 60.6421 13.0175C61.2375 12.3518 61.9993 12.0153 62.9238 12.0153C63.8484 12.0153 64.662 12.3444 65.2574 13.0027C65.8528 13.661 66.1523 14.6114 66.1523 15.8577C66.1523 17.1039 65.8602 18.0618 65.2722 18.7385H65.2685Z" fill="white"/>
<path d="M79.8613 14.4154L77.4058 13.9088C76.7475 13.7683 76.2778 13.6018 75.9931 13.4169C75.7083 13.232 75.5678 12.9768 75.5678 12.6551C75.5678 12.2816 75.7416 11.9931 76.0892 11.7897C76.4368 11.5863 76.9657 11.4828 77.6757 11.4828C78.4597 11.4828 79.0625 11.6011 79.4915 11.8415C79.9168 12.0819 80.1683 12.4332 80.2385 12.8955H83.8146C83.7074 11.6159 83.1194 10.6137 82.0543 9.8926C80.9856 9.17146 79.5544 8.81274 77.7608 8.81274C75.9672 8.81274 74.5323 9.18256 73.519 9.91849C72.5057 10.6581 71.9991 11.6825 71.9991 12.999C71.9991 14.0826 72.38 14.9701 73.1455 15.6543C73.911 16.3385 75.1018 16.8525 76.7216 17.189L78.9109 17.6439C79.4989 17.7696 79.902 17.925 80.1239 18.1099C80.3458 18.2948 80.4567 18.561 80.4567 18.8976C80.4567 19.3413 80.2644 19.6853 79.8835 19.9257C79.5026 20.166 78.8924 20.2844 78.0566 20.2844C77.1321 20.2844 76.4073 20.1291 75.8821 19.8184C75.357 19.5078 75.05 19.0492 74.9613 18.4464H71.3852C71.4924 19.8517 72.1322 20.9537 73.3045 21.7562C74.4768 22.555 76.0596 22.9581 78.0529 22.9581C80.0462 22.9581 81.4293 22.5883 82.4685 21.8524C83.5077 21.1128 84.0291 20.0773 84.0291 18.7459C84.0291 17.6957 83.6778 16.7859 82.9752 16.013C82.2725 15.2401 81.237 14.7113 79.8687 14.4265L79.8613 14.4154Z" fill="white"/>
<path d="M94.7759 16.3901C94.7759 17.0483 94.6391 17.629 94.3617 18.1356C94.0844 18.6422 93.7183 19.0379 93.256 19.3227C92.7937 19.6075 92.2612 19.748 91.6547 19.748C90.9779 19.748 90.4528 19.5631 90.0793 19.1896C89.7058 18.8161 89.5209 18.2576 89.5209 17.5106V9.07886H85.5195V18.2835C85.5195 19.1563 85.697 19.944 86.052 20.6429C86.407 21.3456 86.9285 21.9077 87.6126 22.3219C88.2968 22.7398 89.1215 22.9506 90.0793 22.9506C91.2886 22.9506 92.3204 22.6473 93.1746 22.0445C93.8736 21.549 94.432 20.9203 94.8536 20.1733V22.688H98.7736V9.07886H94.7722V16.3901H94.7759Z" fill="white"/>
<path d="M113.585 10.0812C112.786 9.23803 111.628 8.81274 110.116 8.81274C108.851 8.81274 107.79 9.11229 106.928 9.70769C106.218 10.1958 105.66 10.8282 105.234 11.5863V9.07901H101.314V22.6845H105.316V15.3732C105.316 14.6965 105.452 14.1085 105.73 13.6129C106.003 13.1137 106.388 12.7254 106.876 12.4406C107.364 12.1559 107.919 12.0153 108.544 12.0153C109.273 12.0153 109.827 12.2002 110.212 12.5738C110.593 12.9473 110.785 13.5094 110.785 14.2527V22.6845H114.787V13.4798C114.787 12.056 114.387 10.9244 113.585 10.0775V10.0812Z" fill="white"/>
<path d="M16.0018 0C7.16699 0 0 7.1596 0 16.0019H7.99907C8.01757 11.5789 11.6011 8.00277 16.0129 8.00277C20.4248 8.00277 24.012 11.5863 24.012 16.0019H32.0111C32.0074 7.16699 24.8478 0 16.0018 0Z" fill="white"/>
<path d="M24.0083 16.002H8.01387C8.01387 19.4634 10.218 22.4182 13.2985 23.524V23.6608H1.96741C4.67814 28.6274 9.95539 31.9964 16.0203 31.9964C22.0853 31.9964 27.3514 28.6274 30.0733 23.6608H18.7237V23.524C21.8079 22.4108 24.0083 19.4634 24.0083 16.002Z" fill="white"/>
</g>
<defs>
<clipPath id="clip0_237_132">
<rect width="114.787" height="32" fill="white"/>
</clipPath>
</defs>
</svg>
