<svg width="52" height="51" viewBox="0 0 52 51" fill="none" xmlns="http://www.w3.org/2000/svg">
<g filter="url(#filter0_d_660_8745)">
<rect x="2" width="48" height="45" rx="6" fill="white"/>
<path d="M14.6924 36V28.8906H15.8818V30.0938H15.9092C16.1484 29.2734 16.7637 28.7539 17.5635 28.7539C17.7686 28.7539 17.9463 28.7881 18.042 28.8018V29.957C17.9463 29.9229 17.6934 29.8887 17.4062 29.8887C16.4834 29.8887 15.8818 30.5312 15.8818 31.6113V36H14.6924ZM21.5967 36.1367C19.5527 36.1367 18.3223 34.708 18.3223 32.4727V32.4658C18.3223 30.2646 19.5801 28.7539 21.5215 28.7539C23.4629 28.7539 24.6455 30.1963 24.6455 32.3291V32.7666H19.5254C19.5527 34.2295 20.3594 35.084 21.624 35.084C22.5264 35.084 23.1621 34.6328 23.3672 34.0244L23.3877 33.9629H24.5566L24.543 34.0312C24.3105 35.207 23.1484 36.1367 21.5967 36.1367ZM21.5146 29.8066C20.4824 29.8066 19.6758 30.5107 19.5459 31.8369H23.4355C23.3193 30.4561 22.5537 29.8066 21.5146 29.8066ZM28.3711 36.1367C26.6963 36.1367 25.6846 35.2822 25.541 34.0107L25.5342 33.9492H26.7236L26.7373 34.0176C26.8809 34.7285 27.4072 35.1455 28.3779 35.1455C29.3418 35.1455 29.916 34.7422 29.916 34.0996V34.0928C29.916 33.5801 29.6494 33.293 28.8428 33.0947L27.7148 32.8213C26.375 32.5 25.7256 31.8779 25.7256 30.8525V30.8457C25.7256 29.6221 26.7988 28.7539 28.3369 28.7539C29.8955 28.7539 30.8867 29.6631 30.9756 30.8525L30.9824 30.9414H29.8477L29.8408 30.8936C29.7451 30.2031 29.2188 29.7451 28.3369 29.7451C27.4756 29.7451 26.9424 30.1621 26.9424 30.791V30.7979C26.9424 31.2832 27.2637 31.6182 28.0498 31.8096L29.1777 32.083C30.6133 32.4316 31.1328 32.999 31.1328 34.0107V34.0176C31.1328 35.2617 29.957 36.1367 28.3711 36.1367ZM35.2959 36.1367C33.252 36.1367 32.0215 34.708 32.0215 32.4727V32.4658C32.0215 30.2646 33.2793 28.7539 35.2207 28.7539C37.1621 28.7539 38.3447 30.1963 38.3447 32.3291V32.7666H33.2246C33.252 34.2295 34.0586 35.084 35.3232 35.084C36.2256 35.084 36.8613 34.6328 37.0664 34.0244L37.0869 33.9629H38.2559L38.2422 34.0312C38.0098 35.207 36.8477 36.1367 35.2959 36.1367ZM35.2139 29.8066C34.1816 29.8066 33.375 30.5107 33.2451 31.8369H37.1348C37.0186 30.4561 36.2529 29.8066 35.2139 29.8066ZM41.8584 36.1367C40.5527 36.1367 39.9102 35.5488 39.9102 34.1885V29.875H38.8711V28.8906H39.9102V26.9697H41.1406V28.8906H42.4941V29.875H41.1406V34.1816C41.1406 34.9404 41.4756 35.1523 42.1113 35.1523C42.2549 35.1523 42.3916 35.1318 42.4941 35.125V36.0889C42.3438 36.1094 42.0908 36.1367 41.8584 36.1367Z" fill="#6046FF"/>
<rect x="2.5" y="0.5" width="47" height="44" rx="5.5" stroke="#6046FF"/>
</g>
<defs>
<filter id="filter0_d_660_8745" x="0" y="0" width="52" height="51" filterUnits="userSpaceOnUse" color-interpolation-filters="sRGB">
<feFlood flood-opacity="0" result="BackgroundImageFix"/>
<feColorMatrix in="SourceAlpha" type="matrix" values="0 0 0 0 0 0 0 0 0 0 0 0 0 0 0 0 0 0 127 0" result="hardAlpha"/>
<feMorphology radius="2" operator="dilate" in="SourceAlpha" result="effect1_dropShadow_660_8745"/>
<feOffset dy="4"/>
<feColorMatrix type="matrix" values="0 0 0 0 0.376471 0 0 0 0 0.27451 0 0 0 0 1 0 0 0 1 0"/>
<feBlend mode="normal" in2="BackgroundImageFix" result="effect1_dropShadow_660_8745"/>
<feBlend mode="normal" in="SourceGraphic" in2="effect1_dropShadow_660_8745" result="shape"/>
</filter>
</defs>
</svg>
