<svg width="52" height="51" viewBox="0 0 52 51" fill="none" xmlns="http://www.w3.org/2000/svg">
<g filter="url(#filter0_d_660_8739)">
<rect x="2" width="48" height="45" rx="6" fill="white"/>
<path d="M19.7715 36.1367C18.0967 36.1367 17.085 35.2822 16.9414 34.0107L16.9346 33.9492H18.124L18.1377 34.0176C18.2812 34.7285 18.8076 35.1455 19.7783 35.1455C20.7422 35.1455 21.3164 34.7422 21.3164 34.0996V34.0928C21.3164 33.5801 21.0498 33.293 20.2432 33.0947L19.1152 32.8213C17.7754 32.5 17.126 31.8779 17.126 30.8525V30.8457C17.126 29.6221 18.1992 28.7539 19.7373 28.7539C21.2959 28.7539 22.2871 29.6631 22.376 30.8525L22.3828 30.9414H21.248L21.2412 30.8936C21.1455 30.2031 20.6191 29.7451 19.7373 29.7451C18.876 29.7451 18.3428 30.1621 18.3428 30.791V30.7979C18.3428 31.2832 18.6641 31.6182 19.4502 31.8096L20.5781 32.083C22.0137 32.4316 22.5332 32.999 22.5332 34.0107V34.0176C22.5332 35.2617 21.3574 36.1367 19.7715 36.1367ZM26.0811 36.1367C24.7754 36.1367 24.1328 35.5488 24.1328 34.1885V29.875H23.0938V28.8906H24.1328V26.9697H25.3633V28.8906H26.7168V29.875H25.3633V34.1816C25.3633 34.9404 25.6982 35.1523 26.334 35.1523C26.4775 35.1523 26.6143 35.1318 26.7168 35.125V36.0889C26.5664 36.1094 26.3135 36.1367 26.0811 36.1367ZM29.9365 36.1367C28.5215 36.1367 27.5713 35.2822 27.5713 33.9902V33.9766C27.5713 32.7666 28.5146 32.0078 30.1484 31.9121L32.1855 31.7959V31.2012C32.1855 30.333 31.6182 29.8066 30.627 29.8066C29.7109 29.8066 29.1367 30.2441 29 30.8799L28.9863 30.9414H27.8379L27.8447 30.8662C27.9473 29.6973 28.9658 28.7539 30.6406 28.7539C32.3223 28.7539 33.375 29.6631 33.375 31.085V36H32.1855V34.8447H32.1582C31.7412 35.624 30.8867 36.1367 29.9365 36.1367ZM28.7881 33.9902C28.7881 34.6738 29.3486 35.1045 30.2031 35.1045C31.3242 35.1045 32.1855 34.332 32.1855 33.2998V32.7188L30.2852 32.835C29.335 32.8896 28.7881 33.3135 28.7881 33.9766V33.9902ZM34.8857 36V28.8906H36.0752V30.0938H36.1025C36.3418 29.2734 36.957 28.7539 37.7568 28.7539C37.9619 28.7539 38.1396 28.7881 38.2354 28.8018V29.957C38.1396 29.9229 37.8867 29.8887 37.5996 29.8887C36.6768 29.8887 36.0752 30.5312 36.0752 31.6113V36H34.8857ZM41.8584 36.1367C40.5527 36.1367 39.9102 35.5488 39.9102 34.1885V29.875H38.8711V28.8906H39.9102V26.9697H41.1406V28.8906H42.4941V29.875H41.1406V34.1816C41.1406 34.9404 41.4756 35.1523 42.1113 35.1523C42.2549 35.1523 42.3916 35.1318 42.4941 35.125V36.0889C42.3438 36.1094 42.0908 36.1367 41.8584 36.1367Z" fill="#6046FF"/>
<rect x="2.5" y="0.5" width="47" height="44" rx="5.5" stroke="#6046FF"/>
</g>
<defs>
<filter id="filter0_d_660_8739" x="0" y="0" width="52" height="51" filterUnits="userSpaceOnUse" color-interpolation-filters="sRGB">
<feFlood flood-opacity="0" result="BackgroundImageFix"/>
<feColorMatrix in="SourceAlpha" type="matrix" values="0 0 0 0 0 0 0 0 0 0 0 0 0 0 0 0 0 0 127 0" result="hardAlpha"/>
<feMorphology radius="2" operator="dilate" in="SourceAlpha" result="effect1_dropShadow_660_8739"/>
<feOffset dy="4"/>
<feColorMatrix type="matrix" values="0 0 0 0 0.376471 0 0 0 0 0.27451 0 0 0 0 1 0 0 0 1 0"/>
<feBlend mode="normal" in2="BackgroundImageFix" result="effect1_dropShadow_660_8739"/>
<feBlend mode="normal" in="SourceGraphic" in2="effect1_dropShadow_660_8739" result="shape"/>
</filter>
</defs>
</svg>
