<svg width="52" height="51" viewBox="0 0 52 51" fill="none" xmlns="http://www.w3.org/2000/svg">
<g filter="url(#filter0_d_660_8730)">
<rect x="2" width="48" height="45" rx="6" fill="white"/>
<path d="M23.1689 27.6875C22.7588 27.6875 22.4238 27.3525 22.4238 26.9424C22.4238 26.5254 22.7588 26.1973 23.1689 26.1973C23.5859 26.1973 23.9141 26.5254 23.9141 26.9424C23.9141 27.3525 23.5859 27.6875 23.1689 27.6875ZM22.5742 36V28.8906H23.7637V36H22.5742ZM25.3838 36V28.8906H26.5732V29.9023H26.6006C26.9834 29.2393 27.708 28.7539 28.7881 28.7539C30.3467 28.7539 31.249 29.7656 31.249 31.3857V36H30.0596V31.5977C30.0596 30.4424 29.5195 29.8066 28.4258 29.8066C27.3047 29.8066 26.5732 30.6064 26.5732 31.8164V36H25.3838ZM33.1494 36V29.875H32.1582V28.8906H33.1494V28.0156C33.1494 26.6484 33.7852 25.999 35.0977 25.999C35.3643 25.999 35.6445 26.0195 35.8223 26.0469V27.0107C35.6787 26.9902 35.4941 26.9834 35.3096 26.9834C34.6533 26.9834 34.3252 27.3184 34.3252 28.0225V28.8906H35.7881V29.875H34.3389V36H33.1494ZM39.2812 36.1367C37.3057 36.1367 35.9863 34.708 35.9863 32.4453V32.4316C35.9863 30.1689 37.3125 28.7539 39.2744 28.7539C41.2363 28.7539 42.5693 30.1621 42.5693 32.4316V32.4453C42.5693 34.7148 41.2432 36.1367 39.2812 36.1367ZM39.2881 35.084C40.5391 35.084 41.3525 34.1133 41.3525 32.4453V32.4316C41.3525 30.7637 40.5322 29.8066 39.2744 29.8066C38.0371 29.8066 37.2031 30.7705 37.2031 32.4316V32.4453C37.2031 34.1201 38.0303 35.084 39.2881 35.084Z" fill="#6046FF"/>
<rect x="2.5" y="0.5" width="47" height="44" rx="5.5" stroke="#6046FF"/>
</g>
<defs>
<filter id="filter0_d_660_8730" x="0" y="0" width="52" height="51" filterUnits="userSpaceOnUse" color-interpolation-filters="sRGB">
<feFlood flood-opacity="0" result="BackgroundImageFix"/>
<feColorMatrix in="SourceAlpha" type="matrix" values="0 0 0 0 0 0 0 0 0 0 0 0 0 0 0 0 0 0 127 0" result="hardAlpha"/>
<feMorphology radius="2" operator="dilate" in="SourceAlpha" result="effect1_dropShadow_660_8730"/>
<feOffset dy="4"/>
<feColorMatrix type="matrix" values="0 0 0 0 0.376471 0 0 0 0 0.27451 0 0 0 0 1 0 0 0 1 0"/>
<feBlend mode="normal" in2="BackgroundImageFix" result="effect1_dropShadow_660_8730"/>
<feBlend mode="normal" in="SourceGraphic" in2="effect1_dropShadow_660_8730" result="shape"/>
</filter>
</defs>
</svg>
