<svg width="40" height="40" viewBox="0 0 40 40" fill="none" xmlns="http://www.w3.org/2000/svg">
<path fill-rule="evenodd" clip-rule="evenodd" d="M13 15C13 16.1046 13.8954 17 15 17H17C18.1046 17 19 16.1046 19 15H28C28.5523 15 29 14.5523 29 14C29 13.4477 28.5523 13 28 13H19C19 11.8954 18.1046 11 17 11H15C13.8954 11 13 11.8954 13 13H12C11.4477 13 11 13.4477 11 14C11 14.5523 11.4477 15 12 15H13ZM17 14V13H15V14V15H17V14ZM12 19C11.4477 19 11 19.4477 11 20C11 20.5523 11.4477 21 12 21H20C20 22.1046 20.8954 23 22 23H24C25.1046 23 26 22.1046 26 21H28C28.5523 21 29 20.5523 29 20C29 19.4477 28.5523 19 28 19H26C26 17.8954 25.1046 17 24 17H22C20.8954 17 20 17.8954 20 19H12ZM11 26C11 25.4477 11.4477 25 12 25H15C15 23.8954 15.8954 23 17 23H19C20.1046 23 21 23.8954 21 25H28C28.5523 25 29 25.4477 29 26C29 26.5523 28.5523 27 28 27H21C21 28.1046 20.1046 29 19 29H17C15.8954 29 15 28.1046 15 27H12C11.4477 27 11 26.5523 11 26ZM19 26V25H17V26V27H19V26ZM22 21H24V19H22V21Z" fill="#E6FB66"/>
</svg>
