<svg width="53" height="61" viewBox="-1 15.5 45 30" fill="none" xmlns="http://www.w3.org/2000/svg">
  <g filter="url(#filter0_d_660_8787)">
    <path d="M31.08 35.8267C29.8 36.4967 23.16 39.2167 21.75 39.9567C21.2729 40.2984 20.7085 40.4977 20.1225 40.5313C19.5366 40.565 18.9531 40.4316 18.44 40.1467C17.33 39.6167 10.28 36.7867 9 36.1467C8.36 35.8367 8 35.5867 8 35.3367V32.9967C8 32.9967 17.18 30.9967 18.67 30.4667C19.1705 30.2094 19.7223 30.0678 20.2848 30.0522C20.8473 30.0366 21.4061 30.1475 21.92 30.3767C23.18 30.8267 30.73 32.1867 31.98 32.6467V34.9967C32.02 35.2367 31.73 35.5067 31.08 35.8267Z" fill="#A41E11"/>
    <path d="M31.0797 33.4167C29.7997 34.0867 23.1597 36.8067 21.7497 37.5467C21.2725 37.8884 20.7081 38.0877 20.1222 38.1213C19.5362 38.155 18.9528 38.0216 18.4397 37.7367C17.3297 37.2067 10.2797 34.3567 8.99965 33.7367C7.71965 33.1167 7.69965 32.7367 8.93965 32.2267C10.1797 31.7167 17.1997 28.9967 18.6897 28.4667C19.1901 28.2094 19.7419 28.0678 20.3044 28.0522C20.8669 28.0366 21.4257 28.1475 21.9397 28.3767C23.1997 28.8267 29.7997 31.4467 31.0397 31.9067C32.2797 32.3667 32.3597 32.7467 31.0797 33.4167Z" fill="#D82C20"/>
    <path d="M31.08 31.8849C29.8 32.5549 23.16 35.2749 21.75 36.0149C21.2705 36.3512 20.7067 36.5471 20.122 36.5807C19.5373 36.6142 18.9548 36.4841 18.44 36.2049C17.33 35.6749 10.28 32.8249 9 32.2049C8.36 31.8949 8 31.6449 8 31.4049V28.9949C8 28.9949 17.22 26.9949 18.71 26.4549C19.2105 26.1977 19.7623 26.0561 20.3248 26.0405C20.8873 26.0249 21.4461 26.1358 21.96 26.3649C23.22 26.8249 30.77 28.1749 32.02 28.6349V30.9949C32.02 31.2749 31.73 31.5449 31.08 31.8849Z" fill="#A41E11"/>
    <path d="M31.0797 29.4657C29.7997 30.1257 23.1597 32.8457 21.7497 33.5957C21.2683 33.9277 20.705 34.121 20.1213 34.1545C19.5375 34.188 18.9558 34.0604 18.4397 33.7857C17.3297 33.2457 10.2797 30.3957 8.99965 29.7857C7.71965 29.1757 7.69965 28.7857 8.93965 28.2757C10.1797 27.7657 17.1997 24.9957 18.6897 24.5057C19.1901 24.2485 19.7419 24.1069 20.3044 24.0913C20.8669 24.0757 21.4257 24.1866 21.9397 24.4157C23.1997 24.8757 29.7997 27.4957 31.0197 27.9957C32.2397 28.4957 32.3597 28.7957 31.0797 29.4657Z" fill="#D82C20"/>
    <path d="M31.08 27.7751C29.8 28.4451 23.16 31.1651 21.75 31.9051C21.2705 32.2413 20.7067 32.4372 20.122 32.4708C19.5373 32.5044 18.9548 32.3743 18.44 32.0951C17.33 31.5851 10.28 28.7351 9 28.0951C8.36 27.7851 8 27.5351 8 27.2851V24.8951C8 24.8951 17.18 22.8951 18.67 22.3651C19.1705 22.1079 19.7223 21.9662 20.2848 21.9507C20.8473 21.9351 21.4061 22.046 21.92 22.2751C23.18 22.7351 30.73 24.0851 31.98 24.5451V26.9351C32.02 27.1851 31.73 27.4351 31.08 27.7751Z" fill="#A41E11"/>
    <path d="M31.0796 25.3459C29.7996 26.0159 23.1596 28.7359 21.7496 29.4759C21.2701 29.8115 20.7071 30.0079 20.1229 30.0432C19.5386 30.0785 18.956 29.9514 18.4396 29.6759C17.3296 29.1359 10.2796 26.3059 9.01963 25.6959C7.75963 25.0859 7.71963 24.6959 8.95963 24.1859C10.1996 23.6759 17.1996 20.9359 18.6896 20.4159C19.1901 20.1586 19.7419 20.017 20.3044 20.0014C20.8669 19.9859 21.4257 20.0967 21.9396 20.3259C23.1996 20.7859 29.7996 23.3959 31.0196 23.8559C32.2396 24.3159 32.3596 24.6959 31.0796 25.3459Z" fill="#D82C20"/>
    <path d="M23.1601 22.9978L21.1001 23.2278L20.6201 24.3578L19.8701 23.1178L17.4801 22.9078L19.2601 22.2578L18.7301 21.2578L20.4101 21.9078L22.0201 21.3978L21.6001 22.3978L23.1601 22.9978ZM20.5101 28.4478L16.6201 26.8478L22.1901 25.9978L20.5101 28.4478Z" fill="white"/>
    <path d="M15.1299 25.9484C16.7647 25.9484 18.0899 25.4336 18.0899 24.7984C18.0899 24.1633 16.7647 23.6484 15.1299 23.6484C13.4952 23.6484 12.1699 24.1633 12.1699 24.7984C12.1699 25.4336 13.4952 25.9484 15.1299 25.9484Z" fill="white"/>
    <path d="M25.6299 23.3281L28.9199 24.6281L25.6299 25.9281V23.3281Z" fill="#7A0C00"/>
    <path d="M22.0195 24.7781L25.6495 23.3281V25.9281L25.2895 26.0781L22.0195 24.7781Z" fill="#AD2115"/>
  </g>
</svg>
